<svg xmlns="http://www.w3.org/2000/svg" viewBox="0 0 180 180" fill="none">
  <rect width="180" height="180" rx="38" fill="#1A56DB"/>
  <g transform="translate(14, 14) scale(2.3)">
    <!-- S wing -->
    <path d="M30 30 C30 24, 26 17, 18 17 C11 17, 6 22, 8 27 C10 32, 18 31, 20 36 C22 41, 17 47, 10 47"
          stroke="white" stroke-width="4.5" stroke-linecap="round" fill="none"/>
    <!-- G wing -->
    <path d="M36 28 C38 20, 44 14, 52 14 C59 14, 64 19, 64 26 C64 33, 59 38, 52 38 C47 38, 43 35, 43 31"
          stroke="white" stroke-width="4.5" stroke-linecap="round" fill="none"/>
    <path d="M64 28 L52 28" stroke="white" stroke-width="4.2" stroke-linecap="round"/>
    <!-- Body -->
    <ellipse cx="33" cy="30" rx="6" ry="4.5" fill="white"/>
    <!-- Head -->
    <circle cx="29" cy="24" r="5.5" fill="white"/>
    <!-- Eye -->
    <circle cx="28" cy="23" r="1.8" fill="#1A56DB"/>
    <!-- Beak -->
    <path d="M26 25 L20 28" stroke="white" stroke-width="3" stroke-linecap="round"/>
    <!-- Tail -->
    <path d="M27 33 C22 37, 15 43, 10 50" stroke="white" stroke-width="3.2" stroke-linecap="round"/>
  </g>
</svg>